{
  "accessors": [
    {
      "bufferView": 0,
      "componentType": 5125,
      "count": 6792,
      "type": "SCALAR"
    },
    {
      "bufferView": 1,
      "componentType": 5126,
      "count": 1908,
      "max": [
        0.14253372871799969,
        0.13405435861432335,
        0.015199999616015696
      ],
      "min": [
        -0.12474647337603545,
        -0.1340543586143233,
        -0.015199999616015702
      ],
      "type": "VEC3"
    },
    {
      "bufferView": 2,
      "componentType": 5126,
      "count": 1908,
      "max": [
        0.9999998072961022,
        1.0,
        1.0
      ],
      "min": [
        -0.9999987095213232,
        -0.9999998530454761,
        -1.0
      ],
      "type": "VEC3"
    },
    {
      "bufferView": 3,
      "componentType": 5126,
      "count": 1908,
      "max": [
        1.0,
        0.9832148042398647
      ],
      "min": [
        0.0,
        0.0
      ],
      "type": "VEC2"
    },
    {
      "bufferView": 4,
      "componentType": 5125,
      "count": 10368,
      "type": "SCALAR"
    },
    {
      "bufferView": 5,
      "componentType": 5126,
      "count": 2902,
      "max": [
        0.04426418590318021,
        0.09723463306943117,
        0.015199999616015702
      ],
      "min": [
        -0.14253372871799977,
        -0.11674358428091558,
        -0.015199999616015702
      ],
      "type": "VEC3"
    },
    {
      "bufferView": 6,
      "componentType": 5126,
      "count": 2902,
      "max": [
        0.9999987150106601,
        0.999997386404384,
        1.0
      ],
      "min": [
        -0.9999996519815024,
        -0.9999962909849549,
        -1.0
      ],
      "type": "VEC3"
    },
    {
      "bufferView": 7,
      "componentType": 5126,
      "count": 2902,
      "max": [
        1.0,
        0.8665805616840423
      ],
      "min": [
        0.0,
        0.0
      ],
      "type": "VEC2"
    }
  ],
  "asset": {
    "generator": "Adobe Illustrator",
    "version": "2.0"
  },
  "bufferViews": [
    {
      "buffer": 0,
      "byteLength": 27168,
      "target": 34963
    },
    {
      "buffer": 0,
      "byteLength": 22896,
      "byteOffset": 27168,
      "target": 34962
    },
    {
      "buffer": 0,
      "byteLength": 22896,
      "byteOffset": 50064,
      "target": 34962
    },
    {
      "buffer": 0,
      "byteLength": 15264,
      "byteOffset": 72960,
      "target": 34962
    },
    {
      "buffer": 0,
      "byteLength": 41472,
      "byteOffset": 88224,
      "target": 34963
    },
    {
      "buffer": 0,
      "byteLength": 34824,
      "byteOffset": 129696,
      "target": 34962
    },
    {
      "buffer": 0,
      "byteLength": 34824,
      "byteOffset": 164520,
      "target": 34962
    },
    {
      "buffer": 0,
      "byteLength": 23216,
      "byteOffset": 199344,
      "target": 34962
    }
  ],
  "buffers": [
    {
      "byteLength": 222560,
      "uri": "data:application/octet-stream;base64,"
    }
  ],
  "materials": [
    {
      "doubleSided": true,
      "pbrMetallicRoughness": {
        "baseColorFactor": [
          0.0,
          0.0,
          0.0,
          1.0
        ],
        "metallicFactor": 0.0,
        "roughnessFactor": 0.4000000059604645
      }
    },
    {
      "doubleSided": true,
      "pbrMetallicRoughness": {
        "baseColorFactor": [
          0.87109375,
          0.46875,
          0.16796875,
          1.0
        ],
        "metallicFactor": 0.0,
        "roughnessFactor": 0.4000000059604645
      }
    }
  ],
  "meshes": [
    {
      "primitives": [
        {
          "attributes": {
            "NORMAL": 2,
            "POSITION": 1,
            "TEXCOORD_0": 3
          },
          "indices": 0,
          "material": 0,
          "mode": 4
        }
      ]
    },
    {
      "primitives": [
        {
          "attributes": {
            "NORMAL": 6,
            "POSITION": 5,
            "TEXCOORD_0": 7
          },
          "indices": 4,
          "material": 1,
          "mode": 4
        }
      ]
    }
  ],
  "nodes": [
    {
      "mesh": 0
    },
    {
      "mesh": 1
    }
  ],
  "scenes": [
    {
      "nodes": [
        0,
        1
      ]
    }
  ]
}
